<svg xmlns="http://www.w3.org/2000/svg" viewBox="0 0 24 24" width="24" height="24">
  <!-- Monochrome version of the ShapeItUp block-style logo for VS Code sidebar -->
  <g transform="translate(12, 12) scale(0.13)" fill="#C5C5C5" shape-rendering="crispEdges">

    <!-- Left bracket { -->
    <g transform="translate(-68, 0)">
      <polygon points="40,48 50,42 50,54 40,60"/>
      <polygon points="0,48 40,48 50,42 10,42"/>
      <polygon points="0,48 40,48 40,60 0,60"/>
      <polygon points="14,6 24,0 24,42 14,48"/>
      <polygon points="0,6 14,6 24,0 10,0"/>
      <polygon points="0,6 14,6 14,48 0,48"/>
      <polygon points="-30,-6 -20,-12 -20,0 -30,6"/>
      <polygon points="14,-6 24,-12 24,0 14,6"/>
      <polygon points="-30,-6 14,-6 24,-12 -20,-12"/>
      <polygon points="-30,-6 14,-6 14,6 -30,6"/>
      <polygon points="14,-48 24,-54 24,-12 14,-6"/>
      <polygon points="0,-48 14,-48 24,-54 10,-54"/>
      <polygon points="0,-48 14,-48 14,-6 0,-6"/>
      <polygon points="40,-60 50,-66 50,-54 40,-48"/>
      <polygon points="0,-60 40,-60 50,-66 10,-66"/>
      <polygon points="0,-60 40,-60 40,-48 0,-48"/>
    </g>

    <!-- Center cube -->
    <polygon points="12,-9 20,-14 20,3 12,8"/>
    <polygon points="-12,-9 12,-9 20,-14 -4,-14"/>
    <polygon points="-12,-9 12,-9 12,8 -12,8"/>

    <!-- Right bracket } -->
    <g transform="translate(68, 0)">
      <polygon points="0,48 10,42 10,54 0,60"/>
      <polygon points="-40,48 0,48 10,42 -30,42"/>
      <polygon points="-40,48 0,48 0,60 -40,60"/>
      <polygon points="0,6 10,0 10,42 0,48"/>
      <polygon points="-14,6 0,6 10,0 -4,0"/>
      <polygon points="-14,6 0,6 0,48 -14,48"/>
      <polygon points="30,-6 40,-12 40,0 30,6"/>
      <polygon points="-14,-6 30,-6 40,-12 -4,-12"/>
      <polygon points="-14,-6 30,-6 30,6 -14,6"/>
      <polygon points="0,-48 10,-54 10,-12 0,-6"/>
      <polygon points="-14,-48 0,-48 10,-54 -4,-54"/>
      <polygon points="-14,-48 0,-48 0,-6 -14,-6"/>
      <polygon points="0,-60 10,-66 10,-54 0,-48"/>
      <polygon points="-40,-60 0,-60 10,-66 -30,-66"/>
      <polygon points="-40,-60 0,-60 0,-48 -40,-48"/>
    </g>
  </g>
</svg>
